<mxfile host="app.diagrams.net" agent="Mozilla/5.0 (Macintosh; Intel Mac OS X 10_15_7) AppleWebKit/537.36 (KHTML, like Gecko) Chrome/130.0.0.0 Safari/537.36" version="24.8.3">
  <diagram name="Страница — 1" id="va0fmg_OG2rdSBPS2DNG">
    <mxGraphModel dx="1004" dy="571" grid="1" gridSize="10" guides="1" tooltips="1" connect="1" arrows="1" fold="1" page="1" pageScale="1" pageWidth="827" pageHeight="1169" math="0" shadow="0">
      <root>
        <mxCell id="0" />
        <mxCell id="1" parent="0" />
        <mxCell id="BYjmXUBLkuD55OBYwjTT-1" value="Початок" style="ellipse;whiteSpace=wrap;html=1;" vertex="1" parent="1">
          <mxGeometry x="264" y="40" width="120" height="80" as="geometry" />
        </mxCell>
        <mxCell id="BYjmXUBLkuD55OBYwjTT-2" value="" style="endArrow=none;html=1;rounded=0;" edge="1" parent="1">
          <mxGeometry width="50" height="50" relative="1" as="geometry">
            <mxPoint x="324" y="170" as="sourcePoint" />
            <mxPoint x="324" y="130" as="targetPoint" />
          </mxGeometry>
        </mxCell>
        <mxCell id="BYjmXUBLkuD55OBYwjTT-3" value="вводимо значення N" style="rounded=1;whiteSpace=wrap;html=1;" vertex="1" parent="1">
          <mxGeometry x="264" y="180" width="120" height="60" as="geometry" />
        </mxCell>
        <mxCell id="BYjmXUBLkuD55OBYwjTT-6" value="" style="endArrow=none;html=1;rounded=0;" edge="1" parent="1">
          <mxGeometry width="50" height="50" relative="1" as="geometry">
            <mxPoint x="323" y="290" as="sourcePoint" />
            <mxPoint x="323" y="250" as="targetPoint" />
          </mxGeometry>
        </mxCell>
        <mxCell id="BYjmXUBLkuD55OBYwjTT-7" value="count = 0" style="rounded=0;whiteSpace=wrap;html=1;" vertex="1" parent="1">
          <mxGeometry x="264" y="300" width="120" height="60" as="geometry" />
        </mxCell>
        <mxCell id="BYjmXUBLkuD55OBYwjTT-8" value="" style="endArrow=none;html=1;rounded=0;" edge="1" parent="1">
          <mxGeometry width="50" height="50" relative="1" as="geometry">
            <mxPoint x="324" y="410" as="sourcePoint" />
            <mxPoint x="324" y="370" as="targetPoint" />
          </mxGeometry>
        </mxCell>
        <mxCell id="BYjmXUBLkuD55OBYwjTT-9" value="N &amp;gt; 0" style="rhombus;whiteSpace=wrap;html=1;" vertex="1" parent="1">
          <mxGeometry x="284" y="420" width="80" height="80" as="geometry" />
        </mxCell>
        <mxCell id="BYjmXUBLkuD55OBYwjTT-10" value="" style="endArrow=none;html=1;rounded=0;" edge="1" parent="1">
          <mxGeometry width="50" height="50" relative="1" as="geometry">
            <mxPoint x="380" y="459.5" as="sourcePoint" />
            <mxPoint x="600" y="459.5" as="targetPoint" />
          </mxGeometry>
        </mxCell>
        <mxCell id="BYjmXUBLkuD55OBYwjTT-11" value="count" style="rounded=1;whiteSpace=wrap;html=1;" vertex="1" parent="1">
          <mxGeometry x="610" y="430" width="120" height="60" as="geometry" />
        </mxCell>
        <mxCell id="BYjmXUBLkuD55OBYwjTT-13" value="" style="endArrow=none;html=1;rounded=0;" edge="1" parent="1">
          <mxGeometry width="50" height="50" relative="1" as="geometry">
            <mxPoint x="669.5" y="500" as="sourcePoint" />
            <mxPoint x="670" y="990" as="targetPoint" />
          </mxGeometry>
        </mxCell>
        <mxCell id="BYjmXUBLkuD55OBYwjTT-17" value="N = N%10" style="rounded=0;whiteSpace=wrap;html=1;" vertex="1" parent="1">
          <mxGeometry x="264" y="560" width="120" height="60" as="geometry" />
        </mxCell>
        <mxCell id="BYjmXUBLkuD55OBYwjTT-18" value="" style="endArrow=none;html=1;rounded=0;" edge="1" parent="1">
          <mxGeometry width="50" height="50" relative="1" as="geometry">
            <mxPoint x="324" y="550" as="sourcePoint" />
            <mxPoint x="324" y="510" as="targetPoint" />
          </mxGeometry>
        </mxCell>
        <mxCell id="BYjmXUBLkuD55OBYwjTT-19" value="" style="endArrow=none;html=1;rounded=0;" edge="1" parent="1">
          <mxGeometry width="50" height="50" relative="1" as="geometry">
            <mxPoint x="324" y="670" as="sourcePoint" />
            <mxPoint x="324" y="630" as="targetPoint" />
          </mxGeometry>
        </mxCell>
        <mxCell id="BYjmXUBLkuD55OBYwjTT-20" value="number &amp;gt; 5" style="rhombus;whiteSpace=wrap;html=1;" vertex="1" parent="1">
          <mxGeometry x="284" y="680" width="80" height="80" as="geometry" />
        </mxCell>
        <mxCell id="BYjmXUBLkuD55OBYwjTT-21" value="" style="endArrow=none;html=1;rounded=0;" edge="1" parent="1">
          <mxGeometry width="50" height="50" relative="1" as="geometry">
            <mxPoint x="323" y="810" as="sourcePoint" />
            <mxPoint x="323" y="770" as="targetPoint" />
          </mxGeometry>
        </mxCell>
        <mxCell id="BYjmXUBLkuD55OBYwjTT-22" value="N = N/10" style="rounded=0;whiteSpace=wrap;html=1;" vertex="1" parent="1">
          <mxGeometry x="264" y="820" width="120" height="60" as="geometry" />
        </mxCell>
        <mxCell id="BYjmXUBLkuD55OBYwjTT-23" value="" style="endArrow=none;html=1;rounded=0;" edge="1" parent="1">
          <mxGeometry width="50" height="50" relative="1" as="geometry">
            <mxPoint x="380" y="719.5" as="sourcePoint" />
            <mxPoint x="430" y="719.5" as="targetPoint" />
          </mxGeometry>
        </mxCell>
        <mxCell id="BYjmXUBLkuD55OBYwjTT-24" value="count ++" style="rounded=0;whiteSpace=wrap;html=1;" vertex="1" parent="1">
          <mxGeometry x="440" y="690" width="120" height="60" as="geometry" />
        </mxCell>
        <mxCell id="BYjmXUBLkuD55OBYwjTT-25" value="" style="endArrow=none;html=1;rounded=0;" edge="1" parent="1">
          <mxGeometry width="50" height="50" relative="1" as="geometry">
            <mxPoint x="400" y="850" as="sourcePoint" />
            <mxPoint x="500" y="850" as="targetPoint" />
          </mxGeometry>
        </mxCell>
        <mxCell id="BYjmXUBLkuD55OBYwjTT-26" value="" style="endArrow=none;html=1;rounded=0;" edge="1" parent="1">
          <mxGeometry width="50" height="50" relative="1" as="geometry">
            <mxPoint x="500" y="850" as="sourcePoint" />
            <mxPoint x="499.5" y="760" as="targetPoint" />
          </mxGeometry>
        </mxCell>
        <mxCell id="BYjmXUBLkuD55OBYwjTT-28" value="" style="endArrow=none;html=1;rounded=0;" edge="1" parent="1">
          <mxGeometry width="50" height="50" relative="1" as="geometry">
            <mxPoint x="160" y="460" as="sourcePoint" />
            <mxPoint x="270" y="459.5" as="targetPoint" />
          </mxGeometry>
        </mxCell>
        <mxCell id="BYjmXUBLkuD55OBYwjTT-29" value="" style="endArrow=none;html=1;rounded=0;" edge="1" parent="1">
          <mxGeometry width="50" height="50" relative="1" as="geometry">
            <mxPoint x="160" y="850" as="sourcePoint" />
            <mxPoint x="160" y="460" as="targetPoint" />
          </mxGeometry>
        </mxCell>
        <mxCell id="BYjmXUBLkuD55OBYwjTT-30" value="" style="endArrow=none;html=1;rounded=0;" edge="1" parent="1">
          <mxGeometry width="50" height="50" relative="1" as="geometry">
            <mxPoint x="160" y="850" as="sourcePoint" />
            <mxPoint x="250" y="849.5" as="targetPoint" />
          </mxGeometry>
        </mxCell>
        <mxCell id="BYjmXUBLkuD55OBYwjTT-31" value="" style="endArrow=none;html=1;rounded=0;" edge="1" parent="1">
          <mxGeometry width="50" height="50" relative="1" as="geometry">
            <mxPoint x="400" y="990" as="sourcePoint" />
            <mxPoint x="670" y="990" as="targetPoint" />
          </mxGeometry>
        </mxCell>
        <mxCell id="BYjmXUBLkuD55OBYwjTT-32" value="кінець" style="ellipse;whiteSpace=wrap;html=1;" vertex="1" parent="1">
          <mxGeometry x="264" y="940" width="120" height="80" as="geometry" />
        </mxCell>
      </root>
    </mxGraphModel>
  </diagram>
</mxfile>
